<svg xmlns="http://www.w3.org/2000/svg" viewBox="0 0 262.35 94.67"><defs><style>.cls-1{fill:#3d3d3d;stroke:#fffefe;}.cls-1,.cls-11,.cls-12,.cls-9{stroke-miterlimit:10;}.cls-2{opacity:0.7;}.cls-3{fill:#959393;}.cls-4{fill:#303031;}.cls-5{opacity:0.9;}.cls-11,.cls-13,.cls-6{fill:#191919;}.cls-7{fill:#fffefe;}.cls-8{fill:#fafafa;}.cls-12,.cls-9{fill:#afafaf;stroke:#afafaf;stroke-width:0.25px;}.cls-10,.cls-13{opacity:0.95;}.cls-11{stroke:#222323;}.cls-12,.cls-13{font-size:18.77px;font-family:Rajdhani-Bold, Rajdhani;font-weight:700;}</style></defs><title>Recurso 3</title><g id="Capa_2" data-name="Capa 2"><g id="Capa_1-2" data-name="Capa 1"><path class="cls-1" d="M84.46.52v0L4,.57A3.55,3.55,0,0,0,.5,4.12L.59,72.66h0L29.73,92.38a10.47,10.47,0,0,0,5.84,1.79h66.81a1,1,0,0,0,1-1l-.06-60h0V32L84.46.52"/><g class="cls-2"><polygon class="cls-3" points="34.23 89.96 34.18 33.47 5.25 4.83 5.3 70.39 34.23 89.96"/></g><rect class="cls-4" x="38.67" y="29.97" width="55.46" height="64.6" transform="translate(128.61 -4.2) rotate(89.95)"/><g class="cls-5"><rect class="cls-6" x="12.12" y="0.84" width="62.56" height="73.38" transform="translate(80.89 -5.91) rotate(89.95)"/><path class="cls-7" d="M5.24,70.34,5.18,4.78l76.38-.07.06,65.56ZM8.18,7.78l.06,59.56,70.38-.07L78.57,7.72Z"/></g><path class="cls-8" d="M46.18,55.67,40,55.58q-4.45-.06-6.84-2.45c-1.6-1.6-2.37-3.88-2.33-6.84l.24-17.82q.06-4.44,2.52-6.77a9.47,9.47,0,0,1,6.91-2.27l6.14.09A9.4,9.4,0,0,1,53.49,22a9,9,0,0,1,2.36,6.81l0,2.64a1.09,1.09,0,0,1-1.26,1.22l-4.73-.07c-.79,0-1.18-.42-1.17-1.25l0-2.3A3.52,3.52,0,0,0,48,26.48a3.58,3.58,0,0,0-2.56-.8l-3.83-.05a3.5,3.5,0,0,0-2.52.73,3.5,3.5,0,0,0-.79,2.54L38,46.05a3.51,3.51,0,0,0,.73,2.57,3.43,3.43,0,0,0,2.49.79l3.84.06a3.56,3.56,0,0,0,2.57-.73,3.53,3.53,0,0,0,.8-2.55l0-2.3c0-.83.41-1.23,1.2-1.22l4.73.06A1.1,1.1,0,0,1,55.64,44l0,2.64a9.05,9.05,0,0,1-2.54,6.74A9.41,9.41,0,0,1,46.18,55.67Z"/><g class="cls-2"><polygon class="cls-3" points="98.72 89.97 98.67 33.41 81.53 4.73 81.58 70.32 98.72 89.97"/></g><path class="cls-9" d="M132.78,53.38h-4.32a6.63,6.63,0,0,1-4.84-1.66,6.41,6.41,0,0,1-1.71-4.8V34.34a6.4,6.4,0,0,1,1.71-4.8,6.59,6.59,0,0,1,4.84-1.67h4.32a6.59,6.59,0,0,1,4.82,1.69,6.36,6.36,0,0,1,1.73,4.78V36.2a.77.77,0,0,1-.87.87h-3.34c-.55,0-.83-.29-.83-.87V34.57a2.48,2.48,0,0,0-.54-1.8,2.47,2.47,0,0,0-1.8-.54h-2.7a2.43,2.43,0,0,0-1.77.54,2.53,2.53,0,0,0-.53,1.8V46.68a2.51,2.51,0,0,0,.53,1.8,2.43,2.43,0,0,0,1.77.54H132a2,2,0,0,0,2.34-2.34V45.05c0-.58.28-.87.83-.87h3.34a.77.77,0,0,1,.87.87v1.87a6.4,6.4,0,0,1-1.73,4.78A6.62,6.62,0,0,1,132.78,53.38Z"/><path class="cls-9" d="M146.31,53.38H142.5c-.47,0-.63-.28-.47-.83L148.3,28.7a1.14,1.14,0,0,1,1.19-.83h5.27a1.07,1.07,0,0,1,1.19.83l6.27,23.85c.16.55,0,.83-.47.83h-3.81a.8.8,0,0,1-.6-.18,1.42,1.42,0,0,1-.24-.65L156,48.18h-7.73l-1.12,4.37a1.14,1.14,0,0,1-.25.65A.79.79,0,0,1,146.31,53.38Zm5.75-20.71-2.85,11.47h5.87l-2.86-11.47Z"/><path class="cls-9" d="M169.88,53.38h-3.29a.74.74,0,0,1-.84-.83V28.7a.74.74,0,0,1,.84-.83h3a1.11,1.11,0,0,1,1.11.55l8,15h.16V28.7a.73.73,0,0,1,.83-.83H183a.74.74,0,0,1,.84.83V52.55a.74.74,0,0,1-.84.83h-2.89a1.31,1.31,0,0,1-1.27-.79l-7.94-14.76h-.16V52.55A.74.74,0,0,1,169.88,53.38Z"/><path class="cls-9" d="M194.2,28.7V52.55a.74.74,0,0,1-.83.83H190a.74.74,0,0,1-.84-.83V28.7a.74.74,0,0,1,.84-.83h3.37A.74.74,0,0,1,194.2,28.7Z"/><path class="cls-9" d="M202.22,53.38h-3.81c-.48,0-.64-.28-.48-.83L204.2,28.7a1.14,1.14,0,0,1,1.19-.83h5.28a1.07,1.07,0,0,1,1.19.83l6.27,23.85c.16.55,0,.83-.48.83h-3.81a.76.76,0,0,1-.59-.18,1.22,1.22,0,0,1-.24-.65l-1.11-4.37h-7.74l-1.11,4.37a1.13,1.13,0,0,1-.26.65A.78.78,0,0,1,202.22,53.38ZM208,32.67l-2.86,11.47H211l-2.86-11.47Z"/><path class="cls-9" d="M221.66,52.55V28.7a.74.74,0,0,1,.83-.83h9.8a6.57,6.57,0,0,1,4.82,1.69,6.36,6.36,0,0,1,1.73,4.78V46.92a6.4,6.4,0,0,1-1.73,4.78,6.61,6.61,0,0,1-4.82,1.68h-9.8A.74.74,0,0,1,221.66,52.55ZM227.13,49h4.33a2,2,0,0,0,2.34-2.34V34.57a2.48,2.48,0,0,0-.54-1.8,2.45,2.45,0,0,0-1.8-.54h-4.33a.38.38,0,0,0-.43.44V48.58A.38.38,0,0,0,227.13,49Z"/><path class="cls-9" d="M246.26,53.38h-3.81c-.48,0-.64-.28-.48-.83l6.27-23.85a1.14,1.14,0,0,1,1.19-.83h5.28a1.07,1.07,0,0,1,1.19.83l6.27,23.85c.16.55,0,.83-.48.83h-3.81a.76.76,0,0,1-.59-.18,1.22,1.22,0,0,1-.24-.65l-1.11-4.37H248.2l-1.11,4.37a1.13,1.13,0,0,1-.26.65A.78.78,0,0,1,246.26,53.38ZM252,32.67l-2.86,11.47H255l-2.86-11.47Z"/><g class="cls-10"><path class="cls-11" d="M130.45,49.1h-4.33a6.61,6.61,0,0,1-4.84-1.67,6.43,6.43,0,0,1-1.7-4.8V30.06a6.47,6.47,0,0,1,1.7-4.81,6.64,6.64,0,0,1,4.84-1.66h4.33a6.62,6.62,0,0,1,4.82,1.68A6.4,6.4,0,0,1,137,30.06v1.86a.78.78,0,0,1-.88.87h-3.33c-.56,0-.83-.29-.83-.87V30.29a2.48,2.48,0,0,0-.54-1.8,2.48,2.48,0,0,0-1.8-.54h-2.7a2.43,2.43,0,0,0-1.77.54,2.48,2.48,0,0,0-.53,1.8V42.4a2.48,2.48,0,0,0,.53,1.8,2.43,2.43,0,0,0,1.77.54h2.7A2,2,0,0,0,132,42.4V40.77c0-.58.27-.87.83-.87h3.33a.78.78,0,0,1,.88.87v1.86a6.36,6.36,0,0,1-1.73,4.78A6.59,6.59,0,0,1,130.45,49.1Z"/><path class="cls-11" d="M144,49.1h-3.81c-.48,0-.63-.28-.48-.83L146,24.42a1.14,1.14,0,0,1,1.19-.83h5.28a1.07,1.07,0,0,1,1.19.83l6.27,23.85c.16.55,0,.83-.48.83H155.6a.76.76,0,0,1-.59-.18,1.26,1.26,0,0,1-.24-.65l-1.11-4.37h-7.74l-1.11,4.37a1.17,1.17,0,0,1-.26.65A.78.78,0,0,1,144,49.1Zm5.75-20.71-2.86,11.47h5.88l-2.86-11.47Z"/><path class="cls-11" d="M167.55,49.1h-3.3a.74.74,0,0,1-.83-.83V24.42a.74.74,0,0,1,.83-.83h3a1.11,1.11,0,0,1,1.11.55l8,15h.15V24.42a.74.74,0,0,1,.84-.83h3.29a.73.73,0,0,1,.83.83V48.27a.73.73,0,0,1-.83.83h-2.89a1.33,1.33,0,0,1-1.28-.79l-7.93-14.76h-.16V48.27A.74.74,0,0,1,167.55,49.1Z"/><path class="cls-11" d="M191.87,24.42V48.27a.74.74,0,0,1-.83.83h-3.38a.74.74,0,0,1-.83-.83V24.42a.74.74,0,0,1,.83-.83H191A.74.74,0,0,1,191.87,24.42Z"/><path class="cls-11" d="M199.88,49.1h-3.8c-.48,0-.64-.28-.48-.83l6.27-23.85a1.14,1.14,0,0,1,1.19-.83h5.27a1.08,1.08,0,0,1,1.2.83l6.26,23.85c.16.55,0,.83-.47.83h-3.81a.8.8,0,0,1-.6-.18,1.37,1.37,0,0,1-.23-.65l-1.11-4.37h-7.74l-1.11,4.37a1.24,1.24,0,0,1-.26.65A.79.79,0,0,1,199.88,49.1Zm5.76-20.71-2.86,11.47h5.87L205.8,28.39Z"/><path class="cls-11" d="M219.33,48.27V24.42a.73.73,0,0,1,.83-.83H230a6.62,6.62,0,0,1,4.82,1.68,6.4,6.4,0,0,1,1.73,4.79V42.63a6.36,6.36,0,0,1-1.73,4.78A6.59,6.59,0,0,1,230,49.1h-9.8A.73.73,0,0,1,219.33,48.27Zm5.47-3.53h4.33a2,2,0,0,0,2.34-2.34V30.29a2.48,2.48,0,0,0-.54-1.8,2.47,2.47,0,0,0-1.8-.54H224.8a.38.38,0,0,0-.43.44V44.3A.38.38,0,0,0,224.8,44.74Z"/><path class="cls-11" d="M243.93,49.1h-3.81c-.48,0-.64-.28-.48-.83l6.27-23.85a1.14,1.14,0,0,1,1.19-.83h5.28a1.07,1.07,0,0,1,1.19.83l6.27,23.85c.16.55,0,.83-.48.83h-3.81a.76.76,0,0,1-.59-.18,1.26,1.26,0,0,1-.24-.65l-1.11-4.37h-7.74l-1.11,4.37a1.17,1.17,0,0,1-.26.65A.78.78,0,0,1,243.93,49.1Zm5.75-20.71-2.86,11.47h5.88l-2.86-11.47Z"/></g><text class="cls-12" transform="translate(136.63 75.21)">Ropa informal</text><text class="cls-13" transform="translate(135.5 73.64)">Ropa informal</text></g></g></svg>