<svg xmlns="http://www.w3.org/2000/svg" viewBox="0 0 121.75 136.82"><defs><style>.cls-1{fill:#cc1417;}.cls-2{fill:#fff;}.cls-3{fill:#911913;}</style></defs><title>Recurso 1</title><g id="Capa_2" data-name="Capa 2"><g id="Capa_1-2" data-name="Capa 1"><path class="cls-1" d="M3.75,34.46,61.88.61,120,34.46V102.1L61.88,135.94,3.75,102.1Z"/><path class="cls-2" d="M63.51,68.25l54.06-31.13,2.17,62.75L63.51,133.82Z"/><path class="cls-1" d="M118.38,35.22l-.16,66.5-56.39,32.7-.28-65.36,56.83-33.84ZM71,74.5l.16,43.68,18.75-10.92L89.8,74.33l9.46-5.59v33l9.45-5.54L108.76,52,71,74.5Z"/><path class="cls-3" d="M65.57,1.1a10.57,10.57,0,0,0-9.4,0L4.67,30.71A10.29,10.29,0,0,0,0,38.8V98a10.37,10.37,0,0,0,4.67,8.1l51.5,29.6a10.57,10.57,0,0,0,9.4,0l51.51-29.6a10.33,10.33,0,0,0,4.67-8.1V38.8a10.37,10.37,0,0,0-4.67-8.09Zm45.69,31c2.61,1.46,2.61,3.91,0,5.38L66.17,63.36a10.57,10.57,0,0,1-9.4,0L11,37.07c-2.61-1.47-2.61-3.92,0-5.38L56.12,5.77a10.63,10.63,0,0,1,9.4,0l45.74,26.3ZM4,43.1c0-3,2.12-4.19,4.67-2.72L54.82,66.89A10.32,10.32,0,0,1,59.49,75v52.59c0,3-2.12,4.18-4.67,2.71L8.69,103.78A10.29,10.29,0,0,1,4,95.68Zm64.27,86.38c-2.61,1.46-4.67.27-4.67-2.72V75a10.37,10.37,0,0,1,4.67-8.1l44.77-25.7c2.6-1.46,4.67-.27,4.67,2.72V95.68a10.37,10.37,0,0,1-4.67,8.1l-44.77,25.7Z"/></g></g></svg>